<svg width="96" height="96" viewBox="0 0 32 32" xmlns="http://www.w3.org/2000/svg" shape-rendering="crispEdges">
  <rect width="32" height="32" fill="none"/>
  <rect x="10" y="4" width="12" height="2" fill="#f6ff00"/>
  <rect x="8" y="6" width="16" height="2" fill="#d4dc00"/>
  <rect x="6" y="8" width="20" height="2" fill="#b0b800"/>
  <rect x="4" y="10" width="24" height="2" fill="#9aa200"/>
  <rect x="4" y="12" width="24" height="2" fill="#1a1a1a"/>
  <rect x="6" y="14" width="20" height="2" fill="#0d0d0d"/>
  <rect x="6" y="16" width="4" height="2" fill="#f6ff00"/>
  <rect x="12" y="16" width="8" height="2" fill="#2a2a2a"/>
  <rect x="22" y="16" width="4" height="2" fill="#f6ff00"/>
  <rect x="8" y="18" width="16" height="2" fill="#0d0d0d"/>
  <rect x="6" y="20" width="20" height="2" fill="#2a2a2a"/>
  <rect x="6" y="22" width="6" height="2" fill="#4a4a4a"/>
  <rect x="20" y="22" width="6" height="2" fill="#4a4a4a"/>
  <rect x="8" y="24" width="16" height="2" fill="#2a2a2a"/>
  <rect x="10" y="26" width="12" height="2" fill="#0d0d0d"/>
</svg>
